<svg width="21" height="22" viewBox="0 0 21 22" fill="none" xmlns="http://www.w3.org/2000/svg">
<circle cx="10.1569" cy="11.0592" r="10.1569" fill="white"/>
<g clip-path="url(#clip0_1699_20085)">
<path fill-rule="evenodd" clip-rule="evenodd" d="M14.3954 13.3683C14.3954 15.6991 12.4989 17.5885 10.1593 17.5885C7.81978 17.5885 5.92322 15.6991 5.92322 13.3683C5.92322 11.1015 9.93018 4.87582 10.1499 4.53608C10.155 4.52834 10.1637 4.52834 10.1687 4.53608C10.3885 4.87582 14.3954 11.1015 14.3954 13.3683ZM9.45318 16.2355C7.30358 15.7652 7.67142 13.384 7.67142 13.384C7.67142 13.384 8.2584 14.8214 9.68286 15.2871C11.1073 15.7527 12.8287 15.0698 12.8287 15.0698C12.8287 15.0698 11.6028 16.7059 9.45318 16.2355Z" fill="#5090D6"/>
</g>
<defs>
<clipPath id="clip0_1699_20085">
<rect width="13.0588" height="13.0588" fill="white" transform="translate(3.62756 4.53027)"/>
</clipPath>
</defs>
</svg>
