<svg width="21" height="22" viewBox="0 0 21 22" fill="none" xmlns="http://www.w3.org/2000/svg">
<circle cx="10.1569" cy="11.0592" r="10.1569" fill="white"/>
<g clip-path="url(#clip0_1699_22399)">
<path fill-rule="evenodd" clip-rule="evenodd" d="M7.51894 4.54516C7.51642 4.53787 7.52185 4.53027 7.52955 4.53027H12.1162C12.1211 4.53027 12.1255 4.53348 12.1269 4.53817L14.2336 11.3446C14.2358 11.3518 14.2305 11.3591 14.2229 11.3591H11.1694C11.1657 11.3591 11.163 11.3627 11.164 11.3663L12.9153 17.5311C12.9187 17.5431 12.903 17.5509 12.8955 17.5409L6.08986 8.49044C6.0843 8.48304 6.08957 8.47248 6.09882 8.47248H8.87012C8.87398 8.47248 8.87668 8.46868 8.8754 8.46503L7.51894 4.54516Z" fill="#F4D23C"/>
</g>
<defs>
<clipPath id="clip0_1699_22399">
<rect width="13.0588" height="13.0588" fill="white" transform="translate(3.62756 4.53027)"/>
</clipPath>
</defs>
</svg>
