<svg width="21" height="22" viewBox="0 0 21 22" fill="none" xmlns="http://www.w3.org/2000/svg">
<circle cx="10.1569" cy="11.0592" r="10.1569" fill="white"/>
<g clip-path="url(#clip0_1699_20288)">
<path fill-rule="evenodd" clip-rule="evenodd" d="M12.6122 14.615C12.7736 14.025 12.4604 12.8122 12.4604 12.8122C12.4604 12.8122 12.2333 13.8002 11.8783 14.1654C11.5755 14.4769 11.2045 14.693 10.6725 14.7497C11.1075 14.5385 11.4066 14.0979 11.4066 13.5887C11.4066 12.8739 10.8172 12.2944 10.09 12.2944C9.36284 12.2944 8.77333 12.8739 8.77333 13.5887C8.77333 13.7839 8.81733 13.969 8.89606 14.135C8.44125 13.7727 8.36973 13.1918 8.36973 13.1918C8.36973 13.1918 7.86187 15.3003 9.26125 16.2922C10.6606 17.284 13.4019 16.4315 13.4019 16.4315C13.4019 16.4315 9.47894 19.1918 6.57198 16.1876C4.06786 13.5996 5.9184 10.1926 5.9184 10.1926C5.9184 10.1926 5.83848 10.5086 5.83848 10.8755C5.83848 11.2424 6.03741 11.5216 6.03741 11.5216C6.03741 11.5216 6.63079 10.2708 7.09259 9.76217C7.52966 9.28078 8.07754 8.89034 8.55077 8.5531C8.91504 8.29351 9.23508 8.06544 9.42622 7.85168C10.479 6.67449 9.83349 4.53027 9.83349 4.53027C9.83349 4.53027 11.0203 5.57651 11.3516 6.92774C11.4779 7.4428 11.3966 8.02884 11.324 8.5529C11.206 9.40366 11.1107 10.0911 11.9627 10.0465C13.3396 9.9744 12.1431 7.85168 12.1431 7.85168C12.1431 7.85168 15.2663 9.49321 15.033 12.3642C14.7997 15.2351 11.6192 15.8878 11.6192 15.8878C11.6192 15.8878 12.4509 15.205 12.6122 14.615Z" fill="#FF9D55"/>
</g>
<defs>
<clipPath id="clip0_1699_20288">
<rect width="13.0588" height="13.0588" fill="white" transform="translate(3.62756 4.53027)"/>
</clipPath>
</defs>
</svg>
