<svg width="21" height="22" viewBox="0 0 21 22" fill="none" xmlns="http://www.w3.org/2000/svg">
<circle cx="10.1569" cy="11.0592" r="10.1569" fill="white"/>
<g clip-path="url(#clip0_1699_20509)">
<path fill-rule="evenodd" clip-rule="evenodd" d="M6.11213 15.7695C6.0673 15.7273 6.02298 15.6843 5.97916 15.6405C3.66621 13.3276 3.66621 9.57752 5.97916 7.26457C8.29211 4.95161 15.6621 4.79688 15.6621 4.79688C15.6621 4.79688 16.6681 13.3276 14.3551 15.6405C12.3009 17.6947 9.11318 17.9245 6.80536 16.3299L8.66492 14.0479L11.6376 13.4061L9.21102 13.1636L10.7531 11.5934L12.5085 11.2088L11.1205 10.7978L12.5085 8.29375L10.5341 10.5083L9.77171 9.43244L10.0401 11.2088L8.66492 12.7591L8.02746 10.7977V13.4061L6.11213 15.7695Z" fill="#63BC5A"/>
</g>
<defs>
<clipPath id="clip0_1699_20509">
<rect width="13.0588" height="13.0588" fill="white" transform="translate(3.62756 4.53027)"/>
</clipPath>
</defs>
</svg>
