<svg width="21" height="22" viewBox="0 0 21 22" fill="none" xmlns="http://www.w3.org/2000/svg">
<circle cx="10.2745" cy="11.0592" r="10.1569" fill="white"/>
<g clip-path="url(#clip0_1699_20516)">
<path fill-rule="evenodd" clip-rule="evenodd" d="M14.657 14.5644C15.9757 13.51 16.8041 11.9865 16.8041 10.2923C16.8041 7.10946 13.8807 4.5293 10.2747 4.5293C6.66855 4.5293 3.74524 7.10946 3.74524 10.2923C3.74524 11.9253 4.51483 13.3998 5.75138 14.4484C5.67644 14.7072 5.63533 14.9886 5.63533 15.2829C5.63533 16.556 6.40462 17.5881 7.35361 17.5881C7.97023 17.5881 8.51099 17.1524 8.81413 16.4979C9.11726 17.1524 9.65803 17.5881 10.2747 17.5881C10.8367 17.5881 11.3358 17.226 11.6493 16.6663C11.9628 17.226 12.4618 17.5881 13.0239 17.5881C13.9728 17.5881 14.7421 16.556 14.7421 15.2829C14.7421 15.0321 14.7123 14.7905 14.657 14.5644ZM14.0548 10.4066C14.0548 12.0224 12.3239 13.3324 10.1887 13.3324C8.05355 13.3324 6.32265 12.0224 6.32265 10.4066C6.32265 8.79068 8.05355 7.48074 10.1887 7.48074C12.3239 7.48074 14.0548 8.79068 14.0548 10.4066Z" fill="#B567CE"/>
</g>
<defs>
<clipPath id="clip0_1699_20516">
<rect width="13.0588" height="13.0588" fill="white" transform="translate(3.74524 4.5293)"/>
</clipPath>
</defs>
</svg>
