<svg width="21" height="22" viewBox="0 0 21 22" fill="none" xmlns="http://www.w3.org/2000/svg">
<circle cx="10.2745" cy="11.0592" r="10.1569" fill="white"/>
<g clip-path="url(#clip0_1699_20446)">
<path fill-rule="evenodd" clip-rule="evenodd" d="M8.3035 16.7141C10.2165 16.7141 11.8543 15.6509 12.5304 14.1438C12.5386 14.1254 9.81585 14.8514 9.90267 14.5947C9.94144 14.4801 11.6105 13.8704 12.8265 13.1592C13.5255 12.7504 13.8473 11.8851 13.8473 11.8851C13.8473 11.8851 12.6698 12.4568 12.0745 12.6018C10.875 12.8941 9.81901 12.8626 9.81901 12.8322C9.81901 12.7663 11.5724 12.4332 14.0094 10.9481C15.1557 10.2496 15.467 9.0464 15.467 9.0464C15.467 9.0464 14.2068 9.79708 13.4449 10.0449C11.6382 10.6326 9.98949 10.8097 9.98949 10.7302C9.98949 10.5599 11.4404 10.161 12.9788 9.41557C13.7786 9.02801 14.4713 8.52167 15.2741 7.95859C16.5875 7.0373 16.8042 5.39648 16.8042 5.39648C16.8042 5.39648 15.5087 6.23205 14.8765 6.50953C12.2678 7.65451 9.96434 8.25512 8.3035 8.38514C5.79641 8.58143 3.74536 10.3307 3.74536 12.6018C3.74536 14.873 5.78611 16.7141 8.3035 16.7141Z" fill="#89AAE3"/>
</g>
<defs>
<clipPath id="clip0_1699_20446">
<rect width="13.0588" height="13.0588" fill="white" transform="translate(3.74524 4.5293)"/>
</clipPath>
</defs>
</svg>
